<mxfile host="app.diagrams.net" modified="2023-12-19T17:58:53.059Z" agent="Mozilla/5.0 (Macintosh; Intel Mac OS X 10_15_7) AppleWebKit/605.1.15 (KHTML, like Gecko) Version/16.1 Safari/605.1.15" etag="K9A0OdeiuUGYQeL3nJuy" version="22.1.11" type="github">
  <diagram name="Seite-1" id="QayKqVUZ8DytWcdQ1RC9">
    <mxGraphModel dx="1280" dy="1975" grid="1" gridSize="10" guides="1" tooltips="1" connect="1" arrows="1" fold="1" page="1" pageScale="1" pageWidth="827" pageHeight="1169" math="0" shadow="0">
      <root>
        <mxCell id="0" />
        <mxCell id="1" parent="0" />
        <mxCell id="kqrbGfI9QKIJvla7rpOJ-18" value="" style="verticalLabelPosition=bottom;verticalAlign=top;html=1;shape=mxgraph.basic.rect;fillColor2=none;strokeWidth=1;size=20;indent=5;" vertex="1" parent="1">
          <mxGeometry x="130" y="-860" width="540" height="490" as="geometry" />
        </mxCell>
        <mxCell id="kqrbGfI9QKIJvla7rpOJ-5" style="edgeStyle=orthogonalEdgeStyle;rounded=0;orthogonalLoop=1;jettySize=auto;html=1;exitX=0.75;exitY=0.1;exitDx=0;exitDy=0;exitPerimeter=0;entryX=-0.042;entryY=0.413;entryDx=0;entryDy=0;strokeColor=default;endArrow=none;endFill=0;entryPerimeter=0;" edge="1" parent="1" source="kqrbGfI9QKIJvla7rpOJ-1" target="kqrbGfI9QKIJvla7rpOJ-3">
          <mxGeometry relative="1" as="geometry">
            <mxPoint x="230" y="-610" as="targetPoint" />
            <Array as="points">
              <mxPoint x="220" y="-714" />
              <mxPoint x="220" y="-777" />
            </Array>
          </mxGeometry>
        </mxCell>
        <mxCell id="kqrbGfI9QKIJvla7rpOJ-17" style="edgeStyle=orthogonalEdgeStyle;rounded=0;orthogonalLoop=1;jettySize=auto;html=1;exitX=1;exitY=1;exitDx=0;exitDy=0;exitPerimeter=0;entryX=0;entryY=0.5;entryDx=0;entryDy=0;endArrow=none;endFill=0;" edge="1" parent="1" source="kqrbGfI9QKIJvla7rpOJ-1" target="kqrbGfI9QKIJvla7rpOJ-16">
          <mxGeometry relative="1" as="geometry" />
        </mxCell>
        <mxCell id="kqrbGfI9QKIJvla7rpOJ-1" value="Student" style="shape=umlActor;verticalLabelPosition=bottom;verticalAlign=top;html=1;outlineConnect=0;" vertex="1" parent="1">
          <mxGeometry x="50" y="-720" width="30" height="60" as="geometry" />
        </mxCell>
        <mxCell id="kqrbGfI9QKIJvla7rpOJ-13" style="edgeStyle=orthogonalEdgeStyle;rounded=0;orthogonalLoop=1;jettySize=auto;html=1;exitX=1;exitY=0.5;exitDx=0;exitDy=0;dashed=1;endArrow=none;endFill=0;" edge="1" parent="1" source="kqrbGfI9QKIJvla7rpOJ-3" target="kqrbGfI9QKIJvla7rpOJ-11">
          <mxGeometry relative="1" as="geometry" />
        </mxCell>
        <mxCell id="kqrbGfI9QKIJvla7rpOJ-3" value="Einfache Suche" style="ellipse;whiteSpace=wrap;html=1;" vertex="1" parent="1">
          <mxGeometry x="250" y="-810" width="120" height="80" as="geometry" />
        </mxCell>
        <mxCell id="kqrbGfI9QKIJvla7rpOJ-12" style="edgeStyle=orthogonalEdgeStyle;rounded=0;orthogonalLoop=1;jettySize=auto;html=1;exitX=1;exitY=0.5;exitDx=0;exitDy=0;dashed=1;endArrow=none;endFill=0;" edge="1" parent="1" source="kqrbGfI9QKIJvla7rpOJ-4" target="kqrbGfI9QKIJvla7rpOJ-11">
          <mxGeometry relative="1" as="geometry">
            <Array as="points">
              <mxPoint x="400" y="-680" />
              <mxPoint x="560" y="-680" />
            </Array>
          </mxGeometry>
        </mxCell>
        <mxCell id="kqrbGfI9QKIJvla7rpOJ-4" value="Erweiterte Suche" style="ellipse;whiteSpace=wrap;html=1;" vertex="1" parent="1">
          <mxGeometry x="280" y="-664" width="120" height="80" as="geometry" />
        </mxCell>
        <mxCell id="kqrbGfI9QKIJvla7rpOJ-10" style="edgeStyle=orthogonalEdgeStyle;rounded=0;orthogonalLoop=1;jettySize=auto;html=1;exitX=0.5;exitY=0.5;exitDx=0;exitDy=0;exitPerimeter=0;entryX=0.025;entryY=0.388;entryDx=0;entryDy=0;entryPerimeter=0;endArrow=none;endFill=0;" edge="1" parent="1" source="kqrbGfI9QKIJvla7rpOJ-1" target="kqrbGfI9QKIJvla7rpOJ-4">
          <mxGeometry relative="1" as="geometry" />
        </mxCell>
        <mxCell id="kqrbGfI9QKIJvla7rpOJ-11" value="Datenbank durchsuchen" style="ellipse;whiteSpace=wrap;html=1;" vertex="1" parent="1">
          <mxGeometry x="500" y="-800" width="120" height="80" as="geometry" />
        </mxCell>
        <mxCell id="kqrbGfI9QKIJvla7rpOJ-14" value="&amp;lt;&amp;lt;include&amp;gt;&amp;gt;" style="text;html=1;align=center;verticalAlign=middle;resizable=0;points=[];autosize=1;strokeColor=none;fillColor=none;" vertex="1" parent="1">
          <mxGeometry x="385" y="-792" width="90" height="30" as="geometry" />
        </mxCell>
        <mxCell id="kqrbGfI9QKIJvla7rpOJ-15" value="&amp;lt;&amp;lt;include&amp;gt;&amp;gt;" style="text;html=1;align=center;verticalAlign=middle;resizable=0;points=[];autosize=1;strokeColor=none;fillColor=none;" vertex="1" parent="1">
          <mxGeometry x="405" y="-702" width="90" height="30" as="geometry" />
        </mxCell>
        <mxCell id="kqrbGfI9QKIJvla7rpOJ-20" style="edgeStyle=orthogonalEdgeStyle;rounded=0;orthogonalLoop=1;jettySize=auto;html=1;exitX=1;exitY=0;exitDx=0;exitDy=0;dashed=1;endArrow=none;endFill=0;" edge="1" parent="1" source="kqrbGfI9QKIJvla7rpOJ-16" target="kqrbGfI9QKIJvla7rpOJ-19">
          <mxGeometry relative="1" as="geometry">
            <Array as="points">
              <mxPoint x="453" y="-538" />
              <mxPoint x="453" y="-540" />
            </Array>
          </mxGeometry>
        </mxCell>
        <mxCell id="kqrbGfI9QKIJvla7rpOJ-21" value="&amp;lt;&amp;lt;include&amp;gt;&amp;gt;" style="edgeLabel;html=1;align=center;verticalAlign=middle;resizable=0;points=[];" vertex="1" connectable="0" parent="kqrbGfI9QKIJvla7rpOJ-20">
          <mxGeometry x="0.0146" relative="1" as="geometry">
            <mxPoint as="offset" />
          </mxGeometry>
        </mxCell>
        <mxCell id="kqrbGfI9QKIJvla7rpOJ-23" value="&amp;lt;&amp;lt;include&amp;gt;&amp;gt;" style="edgeStyle=orthogonalEdgeStyle;rounded=0;orthogonalLoop=1;jettySize=auto;html=1;exitX=1;exitY=1;exitDx=0;exitDy=0;dashed=1;endArrow=none;endFill=0;" edge="1" parent="1" source="kqrbGfI9QKIJvla7rpOJ-16" target="kqrbGfI9QKIJvla7rpOJ-22">
          <mxGeometry relative="1" as="geometry">
            <Array as="points">
              <mxPoint x="387" y="-470" />
            </Array>
          </mxGeometry>
        </mxCell>
        <mxCell id="kqrbGfI9QKIJvla7rpOJ-16" value="Jobtreffer markieren" style="ellipse;whiteSpace=wrap;html=1;" vertex="1" parent="1">
          <mxGeometry x="285" y="-550" width="120" height="80" as="geometry" />
        </mxCell>
        <mxCell id="kqrbGfI9QKIJvla7rpOJ-19" value="Jobtreffer zurücksenden" style="ellipse;whiteSpace=wrap;html=1;" vertex="1" parent="1">
          <mxGeometry x="500" y="-610" width="120" height="80" as="geometry" />
        </mxCell>
        <mxCell id="kqrbGfI9QKIJvla7rpOJ-22" value="Jobtreffer verlinken mit Profil" style="ellipse;whiteSpace=wrap;html=1;" vertex="1" parent="1">
          <mxGeometry x="510" y="-510" width="120" height="80" as="geometry" />
        </mxCell>
        <mxCell id="kqrbGfI9QKIJvla7rpOJ-24" value="Userstory 1: Nein, ein Jobangebot kann mehreren Profilen zugeordnet sein.&lt;br&gt;&lt;br&gt;" style="text;html=1;align=center;verticalAlign=middle;resizable=0;points=[];autosize=1;strokeColor=none;fillColor=none;" vertex="1" parent="1">
          <mxGeometry x="60" y="-185" width="430" height="40" as="geometry" />
        </mxCell>
        <mxCell id="kqrbGfI9QKIJvla7rpOJ-25" value="Die Userstory beeinflusst das Use Case Modell nicht, da diese Fähigkeit schon im textuellen Use Case schon beschrieben wurde" style="text;html=1;align=center;verticalAlign=middle;resizable=0;points=[];autosize=1;strokeColor=none;fillColor=none;" vertex="1" parent="1">
          <mxGeometry x="50" y="-112" width="710" height="30" as="geometry" />
        </mxCell>
        <mxCell id="kqrbGfI9QKIJvla7rpOJ-26" value="Systemgrenze" style="text;html=1;align=center;verticalAlign=middle;resizable=0;points=[];autosize=1;strokeColor=none;fillColor=none;" vertex="1" parent="1">
          <mxGeometry x="570" y="-890" width="100" height="30" as="geometry" />
        </mxCell>
      </root>
    </mxGraphModel>
  </diagram>
</mxfile>
